# xmcd
#
# Track frame offsets: 
#        200
#        21082
#        42590
#        58902
#        74870
#        97235
#        116035
#        134422
#        150922
#        169582
#
# Disc length: 2489 seconds
#
# Revision: 1
# Processed by: cddbd v1.5.2PL0 Copyright (c) Steve Scherf et al.
# Submitted via: ExactAudioCopy v0.99pb5
#
DISCID=9309b70a
DTITLE=Chuck Girard - The Name Above All Names
DYEAR=1993
DGENRE=Christian
TTITLE0=The Name Above All Names
TTITLE1=Kingdom Come
TTITLE2=We Are The Righteousness Of God
TTITLE3=Blessed Be The Name Of My Rock
TTITLE4=Soldiers Of The Lion
TTITLE5=Don't Shoot The Wounded
TTITLE6=And The Rain Came Down
TTITLE7=Wall Of Love
TTITLE8=Walk As I Walk
TTITLE9=The Power And The Glory
EXTD=
EXTT0=
EXTT1=
EXTT2=
EXTT3=
EXTT4=
EXTT5=
EXTT6=
EXTT7=
EXTT8=
EXTT9=
PLAYORDER=
